#!OML:ASF H:\ManfredETheater\Project 1\Capture day 1\Session 1\subject.ASF
:FULLY-SPECIFIED
:DEGREES
417
root -5.02587 15.1766 13.0755 25.3407 35.5105 9.06357
lowerback 31.9462 -1.35644 -1.21009
upperback 2.63458 -2.28122 -1.80234
thorax -13.7074 -0.925503 -0.391758
lowerneck -6.39181 -14.7802 -12.7783
upperneck -17.7392 -17.408 22.6559
head -0.791763 -8.89079 8.34303
rclavicle 5.38706e-014 -2.54444e-014
rhumerus -34.1495 3.98654 -83.2656
rradius 71.8163
rwrist -1.63585
rhand -32.0898 -2.35518
rfingers 7.12502
rthumb -5.3354 -32.268
lclavicle 5.38706e-014 -2.54444e-014
lhumerus -22.8444 -3.3567 89.6557
lradius 76.2078
lwrist -5.94451
lhand -26.9325 -21.5992
lfingers 7.12502
lthumb -0.354865 8.38025
rfemur -71.3882 -15.0593 27.8749
rtibia 95.3768
rfoot -17.3369 -12.2265
rtoes -27.5609
lfemur -46.3 4.10521 -15.6981
ltibia 84.3162
lfoot -19.7686 -27.2649
ltoes -22.0927
418
root -4.94394 15.1835 13.2018 24.5767 33.9423 8.37945
lowerback 31.9256 -1.24078 -1.36316
upperback 2.67334 -2.18609 -1.76875
thorax -13.6454 -0.877363 -0.311128
lowerneck -6.61907 -14.3335 -12.5222
upperneck -17.4375 -16.8479 22.1326
head -0.847914 -8.58744 8.18738
rclavicle 3.24019e-014 -1.94809e-014
rhumerus -33.5539 3.67808 -83.2688
rradius 70.9897
rwrist -1.79444
rhand -32.0547 -2.80191
rfingers 7.12502
rthumb -5.30155 -32.7156
lclavicle 3.24019e-014 -1.94809e-014
lhumerus -22.9601 -3.31212 89.4829
lradius 76.6516
lwrist -5.94945
lhand -27.0273 -21.7116
lfingers 7.12502
lthumb -0.446439 8.26771
rfemur -72.4321 -15.0079 28.1779
rtibia 94.9884
rfoot -17.8681 -12.0202
rtoes -28.9655
lfemur -44.4729 3.365 -15.8417
ltibia 83.0605
lfoot -20.1858 -26.2071
ltoes -22.7237
419
root -4.86053 15.1785 13.3312 23.9279 32.3412 7.79421
lowerback 31.8472 -1.14432 -1.56337
upperback 2.68356 -2.13548 -1.75486
thorax -13.5914 -0.84742 -0.208874
lowerneck -6.86314 -13.8521 -12.2032
upperneck -17.0806 -16.2517 21.5542
head -0.898475 -8.26601 8.00277
rclavicle 6.30147e-014 6.95746e-016
rhumerus -33.0614 3.36991 -83.3021
rradius 70.2784
rwrist -2.01796
rhand -32.0079 -3.23007
rfingers 7.12502
rthumb -5.2564 -33.1449
lclavicle 6.30147e-014 6.95746e-016
lhumerus -23.1789 -3.18704 89.2361
lradius 77.2324
lwrist -5.88273
lhand -27.1666 -21.7363
lfingers 7.12502
lthumb -0.580955 8.24267
rfemur -73.6042 -14.904 28.4158
rtibia 94.422
rfoot -18.2626 -11.9703
rtoes -30.1926
lfemur -42.5451 2.61216 -16.0122
ltibia 81.8805
lfoot -21.1243 -24.8258
ltoes -24.0393
420
root -4.77569 15.162 13.4646 23.3851 30.7363 7.29439
lowerback 31.7036 -1.07207 -1.791
upperback 2.67432 -2.12631 -1.75265
thorax -13.5313 -0.835239 -0.0884658
lowerneck -7.1279 -13.3428 -11.8262
upperneck -16.6857 -15.6263 20.9284
head -0.943704 -7.93039 7.7915
rclavicle 1.75924e-014 2.03754e-014
rhumerus -32.6856 3.06715 -83.3481
rradius 69.7164
rwrist -2.29358
rhand -31.9726 -3.59747
rfingers 7.12502
rthumb -5.2223 -33.5131
lclavicle 1.75924e-014 2.03754e-014
lhumerus -23.4683 -2.97888 88.9302
lradius 77.9409
lwrist -5.76685
lhand -27.3255 -21.6723
lfingers 7.12502
lthumb -0.734503 8.30615
rfemur -74.8729 -14.7554 28.5989
rtibia 93.6666
rfoot -18.5507 -11.9867
rtoes -31.2123
lfemur -40.5535 1.86443 -16.2301
ltibia 80.7838
lfoot -22.5525 -23.127
ltoes -25.9567
421
root -4.69025 15.1345 13.6023 22.9501 29.1181 6.88848
lowerback 31.5067 -1.00996 -2.06498
upperback 2.64704 -2.14703 -1.76516
thorax -13.4674 -0.834578 0.0524474
lowerneck -7.40188 -12.8091 -11.3947
upperneck -16.2805 -14.9742 20.2644
head -0.990155 -7.58328 7.55846
rclavicle -7.34261e-014 2.78795e-014
rhumerus -32.4481 2.75769 -83.3921
rradius 69.3445
rwrist -2.6017
rhand -31.9414 -3.89516
rfingers 7.12502
rthumb -5.19217 -33.8116
lclavicle -7.34261e-014 2.78795e-014
lhumerus -23.8048 -2.70918 88.5761
lradius 78.7687
lwrist -5.62775
lhand -27.4916 -21.5509
lfingers 7.12502
lthumb -0.894867 8.427
rfemur -76.2139 -14.5421 28.7044
rtibia 92.7134
rfoot -18.7274 -11.9858
rtoes -32.0717
lfemur -38.5285 1.17046 -16.5475
ltibia 79.743
lfoot -24.3586 -21.1155
ltoes -28.2563
422
root -4.60515 15.0969 13.7453 22.6061 27.4999 6.56811
lowerback 31.274 -0.950727 -2.38188
upperback 2.61041 -2.18542 -1.78695
thorax -13.3965 -0.839937 0.212994
lowerneck -7.70203 -12.2655 -10.9203
upperneck -15.8764 -14.3121 19.5747
head -1.0324 -7.23229 7.30664
rclavicle 8.57259e-016 -2.3792e-014
rhumerus -32.3621 2.43456 -83.4118
rradius 69.1904
rwrist -2.92319
rhand -31.9117 -4.12145
rfingers 7.12502
rthumb -5.16348 -34.0385
lclavicle 8.57259e-016 -2.3792e-014
lhumerus -24.1553 -2.40471 88.1874
lradius 79.7044
lwrist -5.48349
lhand -27.6507 -21.3752
lfingers 7.12502
lthumb -1.04855 8.60193
rfemur -77.5787 -14.2663 28.7316
rtibia 91.5563
rfoot -18.8083 -11.9159
rtoes -32.7677
lfemur -36.4866 0.576477 -16.9782
ltibia 78.7145
lfoot -26.3944 -18.8211
ltoes -30.7343
423
root -4.51986 15.0516 13.8941 22.3196 25.8953 6.30551
lowerback 31.0285 -0.897048 -2.70605
upperback 2.57248 -2.23213 -1.8165
thorax -13.3204 -0.848927 0.372034
lowerneck -8.02598 -11.719 -10.4127
upperneck -15.4919 -13.6469 18.8769
head -1.07179 -6.88158 7.04339
rclavicle -4.24902e-014 -2.03754e-014
rhumerus -32.4369 2.09759 -83.3895
rradius 69.2645
rwrist -3.2287
rhand -31.8709 -4.27086
rfingers 7.12502
rthumb -5.12405 -34.1889
lclavicle -4.24902e-014 -2.03754e-014
lhumerus -24.4918 -2.0809 87.7716
lradius 80.7222
lwrist -5.35945
lhand -27.7882 -21.1748
lfingers 7.12502
lthumb -1.18134 8.80172
rfemur -78.9038 -13.9446 28.7015
rtibia 90.1934
rfoot -18.7823 -11.7689
rtoes -33.3677
lfemur -34.4216 0.109607 -17.5041
ltibia 77.6519
lfoot -28.4569 -16.2928
ltoes -33.0853
424
root -4.43609 15.0013 14.0502 22.0767 24.3055 6.08323
lowerback 30.7878 -0.836155 -3.0485
upperback 2.53462 -2.27381 -1.84621
thorax -13.2445 -0.854673 0.538632
lowerneck -8.37788 -11.1785 -9.88801
upperneck -15.1366 -12.9881 18.1912
head -1.10573 -6.53578 6.77695
rclavicle -9.93923e-015 5.96354e-016
rhumerus -32.682 1.74827 -83.3121
rradius 69.5769
rwrist -3.5078
rhand -31.8016 -4.35729
rfingers 7.12502
rthumb -5.0572 -34.2769
lclavicle -9.93923e-015 5.96354e-016
lhumerus -24.7955 -1.7527 87.3329
lradius 81.808
lwrist -5.28005
lhand -27.9042 -20.9728
lfingers 7.12502
lthumb -1.29339 9.00303
rfemur -80.1447 -13.5605 28.623
rtibia 88.6338
rfoot -18.6623 -11.52
rtoes -33.8351
lfemur -32.3581 -0.185514 -18.1075
ltibia 76.512
lfoot -30.3251 -13.7693
ltoes -34.9837
425
root -4.35517 14.9476 14.2143 21.8764 22.7828 5.89539
lowerback 30.5519 -0.783975 -3.39209
upperback 2.50428 -2.32279 -1.86473
thorax -13.16 -0.863478 0.720419
lowerneck -8.74982 -10.6501 -9.36339
upperneck -14.832 -12.3409 17.5399
head -1.13804 -6.19808 6.51817
rclavicle 5.62561e-014 -2.14687e-014
rhumerus -33.0854 1.39975 -83.1677
rradius 70.1072
rwrist -3.73469
rhand -31.7049 -4.37769
rfingers 7.12502
rthumb -4.96376 -34.2996
lclavicle 5.62561e-014 -2.14687e-014
lhumerus -25.0452 -1.42912 86.8735
lradius 82.94
lwrist -5.27169
lhand -28.0104 -20.7807
lfingers 7.12502
lthumb -1.39595 9.19448
rfemur -81.2803 -13.1535 28.5138
rtibia 86.9055
rfoot -18.4583 -11.159
rtoes -34.1839
lfemur -30.3008 -0.334301 -18.7447
ltibia 75.2834
lfoot -32.0381 -11.2893
ltoes -36.4004
426
root -4.27769 14.8925 14.3867 21.7103 21.3374 5.72417
lowerback 30.3391 -0.741866 -3.72175
upperback 2.4748 -2.37682 -1.86948
thorax -13.0834 -0.874738 0.911454
lowerneck -9.13735 -10.1398 -8.85479
upperneck -14.578 -11.7124 16.9373
head -1.16703 -5.87186 6.27405
rclavicle -2.28602e-014 7.15625e-015
rhumerus -33.6521 1.05878 -82.9531
rradius 70.8337
rwrist -3.90671
rhand -31.5787 -4.34015
rfingers 7.12502
rthumb -4.84192 -34.2648
lclavicle -2.28602e-014 7.15625e-015
lhumerus -25.2488 -1.12666 86.3906
lradius 84.0999
lwrist -5.35291
lhand -28.1103 -20.6062
lfingers 7.12502
lthumb -1.49243 9.3683
rfemur -82.2885 -12.7301 28.388
rtibia 85.0481
rfoot -18.1615 -10.683
rtoes -34.4735
lfemur -28.2639 -0.336361 -19.3792
ltibia 73.9747
lfoot -33.5298 -8.83668
ltoes -37.6625
427
root -4.20402 14.8379 14.5673 21.5844 19.9926 5.5549
lowerback 30.1474 -0.719302 -4.01142
upperback 2.43893 -2.43982 -1.85749
thorax -13.0231 -0.891279 1.10245
lowerneck -9.51801 -9.65328 -8.38461
upperneck -14.3848 -11.1084 16.4048
head -1.19666 -5.56031 6.05612
rclavicle 6.67916e-014 1.8487e-014
rhumerus -34.3828 0.729074 -82.67
rradius 71.7312
rwrist -4.02474
rhand -31.4264 -4.29386
rfingers 7.12502
rthumb -4.69489 -34.2218
lclavicle 6.67916e-014 1.8487e-014
lhumerus -25.4119 -0.865541 85.8823
lradius 85.2646
lwrist -5.52948
lhand -28.214 -20.4567
lfingers 7.12502
lthumb -1.59256 9.51715
rfemur -83.1695 -12.3082 28.261
rtibia 83.1092
rfoot -17.7587 -10.0815
rtoes -34.7402
lfemur -26.2629 -0.22332 -19.9684
ltibia 72.6004
lfoot -34.7539 -6.68037
ltoes -38.429
428
root -4.13419 14.7856 14.7562 21.5086 18.7761 5.38824
lowerback 29.9616 -0.730914 -4.25141
upperback 2.40282 -2.52573 -1.82229
thorax -12.965 -0.920033 1.30001
lowerneck -9.88568 -9.19022 -7.96293
upperneck -14.2644 -10.5261 15.9451
head -1.23247 -5.26216 5.86815
rclavicle 7.07673e-014 2.127e-014
rhumerus -35.2292 0.441808 -82.3204
rradius 72.7348
rwrist -4.11395
rhand -31.2922 -4.21327
rfingers 7.12502
rthumb -4.56527 -34.1441
lclavicle 7.07673e-014 2.127e-014
lhumerus -25.522 -0.636 85.3527
lradius 86.4184
lwrist -5.80617
lhand -28.3191 -20.3224
lfingers 7.12502
lthumb -1.69406 9.65064
rfemur -83.9407 -11.923 28.1379
rtibia 81.2082
rfoot -17.2854 -9.38512
rtoes -35.0419
lfemur -24.3357 -0.0458618 -20.4935
ltibia 71.239
lfoot -35.8061 -4.79095
ltoes -38.8572
429
root -4.0683 14.7367 14.953 21.4858 17.694 5.22382
lowerback 29.7884 -0.780852 -4.43407
upperback 2.35886 -2.63906 -1.76685
thorax -12.9209 -0.963096 1.49868
lowerneck -10.2287 -8.75082 -7.59073
upperneck -14.2137 -9.96671 15.5536
head -1.27718 -4.97791 5.7094
rclavicle 4.17448e-014 1.63003e-014
rhumerus -36.2109 0.16826 -81.916
rradius 73.8528
rwrist -4.15898
rhand -31.155 -4.17411
rfingers 7.12502
rthumb -4.43279 -34.1077
lclavicle 4.17448e-014 1.63003e-014
lhumerus -25.6175 -0.48245 84.7907
lradius 87.5852
lwrist -6.14038
lhand -28.4316 -20.1728
lfingers 7.12502
lthumb -1.80274 9.79931
rfemur -84.6032 -11.5859 28.0148
rtibia 79.3522
rfoot -16.6596 -8.61088
rtoes -35.3727
lfemur -22.4765 0.160488 -20.9457
ltibia 69.8143
lfoot -36.6719 -3.14472
ltoes -39.1063
430
root -4.00447 14.64 15.1531 21.5141 16.7761 5.06155
lowerback 29.6155 -0.886311 -4.53037
upperback 2.31223 -2.7918 -1.69096
thorax -12.8804 -1.02769 1.6871
lowerneck -10.5471 -8.33688 -7.26673
upperneck -14.2273 -9.43308 15.2203
head -1.33109 -4.70862 5.57649
rclavicle 1.59028e-015 -1.31198e-014
rhumerus -37.3058 -0.0847252 -81.4639
rradius 75.0488
rwrist -4.18013
rhand -31.062 -4.13293
rfingers 7.12502
rthumb -4.34301 -34.0684
lclavicle 1.59028e-015 -1.31198e-014
lhumerus -25.702 -0.408931 84.2021
lradius 88.7529
lwrist -6.49737
lhand -28.5392 -19.9983
lfingers 7.12502
lthumb -1.90667 9.97294
rfemur -85.5058 -11.3047 27.9036
rtibia 77.8264
rfoot -15.7192 -7.80327
rtoes -35.7385
lfemur -20.7642 0.323468 -21.3091
ltibia 68.5234
lfoot -37.4845 -1.71006
ltoes -39.2745
